<?xml version="1.0" encoding="utf-8"?>
<!-- Generator: Adobe Illustrator 19.0.1, SVG Export Plug-In . SVG Version: 6.00 Build 0)  -->
<svg version="1.1" xmlns="http://www.w3.org/2000/svg" xmlns:xlink="http://www.w3.org/1999/xlink" x="0px" y="0px"
	 viewBox="0 0 3968.5 283.5" style="enable-background:new 0 0 3968.5 283.5;" xml:space="preserve">
<style type="text/css">
	.st0{fill:#FFFFFF;stroke:#000000;stroke-miterlimit:10;}
	.st1{fill:#DADADA;stroke:#000000;stroke-miterlimit:10;}
	.st2{fill:#6DB52D;stroke:#000000;stroke-miterlimit:10;}
	.st3{fill:none;stroke:#000000;stroke-miterlimit:10;}
	.st4{stroke:#000000;stroke-miterlimit:10;}
	.st5{stroke:#F6F6F6;stroke-miterlimit:10;}
	.st6{fill:none;stroke:#FFFFFF;stroke-miterlimit:10;}
</style>
<g id="Lag_5">
	<rect class="st0" width="3968.5" height="283.5"/>
</g>
<g id="Lag_3">
	<rect x="71.5" y="55.7" class="st1" width="382.7" height="170.1"/>
	<rect x="71.5" y="169.1" class="st1" width="382.7" height="56.7"/>
</g>
<g id="Lag_4">
	<g>
		<path d="M81.1,178.7v-0.4h15.7c2.6,0,4.9,0.3,6.9,0.8c2,0.6,3.7,1.3,5,2.3c1.3,1,2.3,2.1,3,3.3c0.7,1.2,1,2.5,1,3.9
			c0,1.3-0.3,2.6-0.9,3.8c-0.6,1.2-1.6,2.3-2.9,3.3c-1.3,1-3,1.7-5.2,2.3c-2.1,0.6-4.6,0.8-7.4,0.8c-0.9,0-2.6-0.1-5.1-0.3v13.1
			c0,2.7,1.7,4.1,5.2,4.2v0.4H81.1v-0.4c1.5,0,2.7-0.4,3.7-1c1-0.6,1.4-1.7,1.4-3.1v-28.6c0-0.9-0.2-1.6-0.5-2.2
			c-0.3-0.6-0.8-1-1.2-1.2c-0.5-0.2-1-0.4-1.6-0.6c-0.6-0.1-1-0.2-1.2-0.2H81.1z M91.2,179.6v17.8c1.7,0.2,3.3,0.4,4.9,0.4
			c3.1,0,5.7-0.6,7.9-1.9c2.2-1.3,3.2-3.6,3.2-7c0-2.8-0.9-5.1-2.8-6.9s-4.8-2.7-8.6-2.7C94.2,179.2,92.7,179.3,91.2,179.6z"/>
		<path d="M154.3,195.6v-12.7c0-1.2-0.4-2.2-1.3-3s-2.2-1.2-3.9-1.2v-0.4h15.2v0.4c-1.8,0-3.1,0.4-3.9,1.2c-0.8,0.8-1.2,1.8-1.2,3
			v28.6c0,2.8,1.7,4.2,5.1,4.2v0.4h-15.2v-0.4c1.6,0,2.9-0.3,3.8-1c0.9-0.7,1.4-1.7,1.4-3.1v-14.9h-27.4v14.8c0,1.3,0.5,2.3,1.4,3.1
			c0.9,0.7,2.2,1.1,3.8,1.1v0.4h-15.2v-0.4c1.6,0,2.9-0.4,3.8-1.1c0.9-0.7,1.3-1.8,1.3-3.1v-28.6c0-2.8-1.7-4.2-5.1-4.2v-0.4h15.2
			v0.4c-1.8,0-3.1,0.4-3.9,1.2c-0.8,0.8-1.2,1.8-1.2,3v12.7H154.3z"/>
		<path d="M190.6,177.8l14.3,32.5c0.8,1.7,1.5,2.9,2.1,3.7c0.7,0.8,1.3,1.2,1.9,1.4c0.6,0.2,1.4,0.3,2.4,0.4v0.4h-15.6v-0.4
			c1.6,0,2.8-0.1,3.7-0.4c0.9-0.2,1.3-0.9,1.3-2c0-0.6-0.2-1.4-0.6-2.3c-0.1-0.1-0.1-0.2-0.1-0.3l-4.2-10.1h-16.5l-3.8,9.3
			c-0.5,1.3-0.8,2.3-0.8,3.1c0,1.1,0.3,1.8,1,2.1c0.7,0.4,1.6,0.5,2.9,0.5v0.4h-11.2v-0.4c1.6-0.1,2.9-0.6,3.8-1.5
			c1-0.8,1.8-2.1,2.5-3.9l13.5-32.6H190.6z M179.8,199.3H195l-7.8-18h-0.1L179.8,199.3z"/>
		<path d="M215.1,178.8h-0.6v-0.5H231c2.7,0,4.9,0.3,6.8,1c1.8,0.7,3.3,1.5,4.3,2.5c1,1,1.8,2.1,2.2,3.2c0.4,1.1,0.7,2.2,0.7,3.3
			c0,1.4-0.4,2.7-1.1,3.9c-0.7,1.3-1.8,2.3-3.3,3.3c-1.5,0.9-3.4,1.5-5.6,1.9v0.1c2.9,1.1,5.5,3.3,7.9,6.5l4.3,5.8
			c1.9,2.6,3.5,4.2,4.7,4.9c1.2,0.7,2.3,1.1,3.5,1.2v0.4h-8.7c-0.4-0.4-0.7-0.7-1-1.1c-0.3-0.4-0.7-0.7-1-1.1
			c-0.2-0.3-0.5-0.6-1-1.2c-0.4-0.5-0.7-0.8-0.8-0.9l-5.7-7.5c-1.1-1.5-2.3-2.8-3.5-3.7c-1.2-1-2.3-1.6-3.4-2c-1-0.4-2-0.7-2.8-0.8
			c-0.8-0.1-1.8-0.2-2.9-0.2v13.9c0,2.7,1.7,4.1,5.2,4.2v0.4h-15.2v-0.4c1,0,1.8-0.2,2.5-0.4c0.7-0.2,1.3-0.7,1.8-1.3
			c0.5-0.6,0.7-1.4,0.7-2.5v-28.6c0-1.5-0.5-2.6-1.4-3.2C217.2,179.1,216.2,178.8,215.1,178.8z M224.5,196.7h2.7c2.9,0,5.2-0.3,7-1
			c1.8-0.7,3.2-1.6,4-2.8c0.8-1.2,1.2-2.7,1.2-4.4c0-1.5-0.4-2.9-1.1-4.3c-0.7-1.4-2-2.6-3.7-3.5c-1.8-1-4.1-1.4-7.1-1.4
			c-1.2,0-2.2,0.1-3,0.2V196.7z"/>
		<path d="M308.8,178.2v0.4c-0.9,0.1-1.6,0.2-1.9,0.2s-0.8,0.2-1.3,0.5c-0.7,0.4-1.2,0.9-1.4,1.3c-0.2,0.4-0.3,1.1-0.3,2.1
			c-0.1,0.2-0.1,0.3,0,0.5l1.7,28.1c0,1.2,0.4,2.2,1.1,3.1c0.7,0.9,2.1,1.3,4.4,1.3v0.4h-15.5v-0.4c2-0.2,3.4-0.6,4.1-1.4
			c0.7-0.8,1-1.9,0.9-3.6l-1.7-29.1h-0.1l-16.9,34.5l-16-33.2h-0.1l-1.7,26.8c-0.1,1.5,0,2.6,0.3,3.4c0.3,0.8,0.8,1.4,1.5,1.7
			c0.7,0.4,1.7,0.6,3.1,0.8v0.4h-12v-0.4c1.5,0,2.7-0.3,3.5-0.9c0.8-0.6,1.3-1.3,1.6-2.1s0.4-2,0.6-3.5l1.9-27.8
			c0-0.1-0.1-0.3-0.4-0.6c-0.3-0.3-0.6-0.5-1-0.8c-0.4-0.3-0.7-0.5-1.1-0.6c-0.7-0.4-1.4-0.6-1.9-0.6c-0.5-0.1-1.3-0.1-2.3-0.2v-0.4
			H269l14.8,31l15-31H308.8z"/>
		<path d="M336.7,177.8l14.3,32.5c0.8,1.7,1.5,2.9,2.1,3.7c0.7,0.8,1.3,1.2,1.9,1.4c0.6,0.2,1.4,0.3,2.4,0.4v0.4h-15.6v-0.4
			c1.6,0,2.8-0.1,3.7-0.4c0.9-0.2,1.3-0.9,1.3-2c0-0.6-0.2-1.4-0.6-2.3c-0.1-0.1-0.1-0.2-0.1-0.3l-4.2-10.1h-16.5l-3.8,9.3
			c-0.5,1.3-0.8,2.3-0.8,3.1c0,1.1,0.3,1.8,1,2.1c0.7,0.4,1.6,0.5,2.9,0.5v0.4h-11.2v-0.4c1.6-0.1,2.9-0.6,3.8-1.5
			c1-0.8,1.8-2.1,2.5-3.9l13.5-32.6H336.7z M325.8,199.3H341l-7.8-18h-0.1L325.8,199.3z"/>
		<path d="M399.9,186.7h-0.6c-0.4-1.9-1.5-3.4-3.3-4.7c-1.8-1.3-3.8-2.2-6.1-2.8c-2.3-0.6-4.5-0.9-6.5-0.9c-2.7,0-5.3,0.5-7.7,1.4
			c-2.4,0.9-4.5,2.2-6.2,3.9c-1.8,1.7-3.1,3.7-4.1,6c-1,2.3-1.5,4.9-1.5,7.6c0,2.7,0.5,5.1,1.4,7.4c0.9,2.3,2.3,4.2,4.1,5.9
			s3.9,2.9,6.3,3.8c2.4,0.9,5,1.3,7.9,1.3c2.4,0,5.1-0.4,8-1.2c2.9-0.8,5.5-2.1,7.9-3.9v1.5c-2.9,1.8-5.5,3.1-7.9,3.9
			s-5.4,1.2-8.9,1.2c-3.8,0-7.2-0.5-10.3-1.6c-3.1-1.1-5.7-2.6-7.9-4.4c-2.1-1.9-3.8-3.9-4.9-6.2s-1.7-4.7-1.7-7.1
			c0-3.7,1.1-7.1,3.4-10.3c2.3-3.2,5.4-5.7,9.3-7.5c3.9-1.8,8.2-2.8,12.7-2.8c2.8,0,5.8,0.3,9.1,1l3.4,0.7c0.6,0.1,1.2,0.2,1.7,0.2
			c0.8,0,1.4-0.1,1.7-0.3c0.3-0.2,0.5-0.6,0.6-1.1h0.5L399.9,186.7z"/>
		<path d="M447.1,178.2v0.4c-1.4,0-2.7,0.3-3.8,0.8c-1.1,0.5-2,1.1-2.6,1.6c-0.6,0.6-1.3,1.2-2,2l-11.2,13.3v15.2
			c0,1.4,0.5,2.4,1.5,3c1,0.7,2.3,1,3.7,1.1v0.4h-15.1v-0.4c1.5,0,2.8-0.4,3.6-1c0.9-0.7,1.3-1.7,1.3-3.1v-14.5l-12.2-14.5
			c-1.3-1.6-2.5-2.6-3.5-3.1c-1-0.5-2.4-0.8-4.2-0.8v-0.4h17v0.4c-1.7,0.1-2.8,0.3-3.3,0.9c-0.5,0.5-0.7,1.1-0.7,1.5
			c0,0.5,0.4,1.3,1.3,2.3l10,11.7l8.8-10.5c1.3-1.6,2-2.8,2-3.6c0-0.6-0.2-1-0.5-1.4c-0.4-0.3-0.7-0.5-1.1-0.6
			c-0.4-0.1-0.8-0.2-1.2-0.3v-0.4H447.1z"/>
	</g>
</g>
<g id="Lag_1">
	<path class="st2" d="M384.8,84v56.7c0,15.7-19,28.4-42.5,28.4c-23.5,0-42.5-12.7-42.5-28.4h14.2c0,7.8,12.7,14.2,28.3,14.2
		c15.7,0,28.4-6.3,28.4-14.2V98.2h-70.9V84H384.8z"/>
	<path class="st3" d="M247.9,111.4c-0.1,0.3-0.1,0.6-0.1,1"/>
	<path class="st2" d="M276.3,126.6c-3.9,0-7.1-3.2-7.1-7.1c0-3.9,3.2-7.1,7.1-7.1c11.8,0,21.3-12.7,21.3-28.3
		c0-4.5-2.1-8.6-5.4-11.2c-2.4-1.9-5.4-3-8.7-3c-15.7,0-28.3,15.8-28.3,35.4c-3.7,0-6.7,2.7-7.1,6.1c-6-3.8-13.3-6.1-21.2-6.1
		c-19.6,0-35.4,12.7-35.4,28.3c0,11.8,9.5,21.3,21.3,21.3c0,2.1-6.3,3.8-14.2,3.8c-15.7,0-28.4-4.9-28.4-10.9
		c0,11.8,19,21.3,42.5,21.3c11.8,0,21.3-6.3,21.3-14.2c0-7.8-4.8-14.2-10.6-14.2c-5.9,0-10.6-3.2-10.6-7.1c0-3.9,6.3-7.1,14.2-7.1
		c15.7,0,28.3,12.7,28.3,28.3c0,7.8,6.3,14.2,14.2,14.2c11.8,0,21.3-12.7,21.3-28.4C290.5,132.9,284.1,126.6,276.3,126.6z
		 M287.5,85.6c2,0,3.5,1.6,3.5,3.5c0,2-1.6,3.5-3.5,3.5c-2,0-3.5-1.6-3.5-3.5C283.9,87.2,285.5,85.6,287.5,85.6z M275.7,77.5
		c2,0,3.5,1.6,3.5,3.5c0,2-1.6,3.5-3.5,3.5c-2,0-3.5-1.6-3.5-3.5C272.2,79.1,273.8,77.5,275.7,77.5z"/>
	<path class="st3" d="M247.9,111.4c10,6.4,16.6,17.1,16.6,29.3"/>
	<polygon class="st2" points="154.8,98.2 154.8,112.4 190.2,112.4 190.2,126.6 154.8,126.6 154.8,169.1 140.6,169.1 140.6,84 
		225.7,84 225.7,98.2 	"/>
	<line class="st3" x1="292.1" y1="72.9" x2="298.1" y2="66.9"/>
	<line class="st3" x1="298.1" y1="66.9" x2="306.6" y2="66.9"/>
	<line class="st3" x1="298.1" y1="66.9" x2="298.1" y2="58.4"/>
	<path class="st3" d="M291,89.1c0,2-1.6,3.5-3.5,3.5c-2,0-3.5-1.6-3.5-3.5c0-2,1.6-3.5,3.5-3.5C289.4,85.6,291,87.2,291,89.1z"/>
	<path class="st3" d="M279.3,81c0,2-1.6,3.5-3.5,3.5c-2,0-3.5-1.6-3.5-3.5c0-2,1.6-3.5,3.5-3.5C277.7,77.5,279.3,79.1,279.3,81z"/>
</g>
<g id="Lag_6">
	<path class="st3" d="M254.9,155c0-15.7-12.7-28.3-28.3-28.3"/>
	<path class="st3" d="M254.9,155c0,7.8,6.3,14.2,14.2,14.2"/>
	<path class="st3" d="M233.7,155c0,7.8-9.5,14.2-21.3,14.2"/>
	<path class="st3" d="M233.7,155c0-7.8-4.8-14.2-10.6-14.2"/>
	<path class="st3" d="M212.4,133.8c0,3.9,4.8,7.1,10.6,7.1"/>
	<path class="st3" d="M212.4,133.8c0-3.9,6.3-7.1,14.2-7.1"/>
	<path class="st3" d="M212.4,155c0,2.1-6.3,3.8-14.2,3.8"/>
	<path class="st3" d="M169.9,147.9c0,11.8,19,21.3,42.5,21.3"/>
	<path class="st3" d="M169.9,147.9c0,6,12.7,10.9,28.3,10.9"/>
	<path class="st3" d="M269.1,119.6c0,3.9,3.2,7.1,7.1,7.1"/>
	<path class="st3" d="M269.1,119.6c0-3.9,3.2-7.1,7.1-7.1"/>
	<path class="st3" d="M247.7,112.5c0-3.9,3.2-7.1,7.2-7.1"/>
	<path class="st3" d="M297.4,84.1c0,15.7-9.5,28.3-21.3,28.3"/>
	<path class="st3" d="M297.4,84.1c0-7.8-6.3-14.2-14.2-14.2"/>
	<path class="st3" d="M254.9,105.4c0-19.6,12.7-35.4,28.3-35.4"/>
	<path class="st3" d="M264.4,140.8c0-19.6-16.9-35.4-37.8-35.4"/>
	<path class="st3" d="M290.4,140.8c0,15.7-9.5,28.3-21.3,28.3"/>
	<path class="st3" d="M290.4,140.8c0-7.8-6.3-14.2-14.2-14.2"/>
	<path class="st3" d="M191.1,133.8c0,11.8,9.5,21.3,21.3,21.3"/>
	<path class="st3" d="M191.1,133.8c0-15.7,15.8-28.3,35.4-28.3"/>
	<line class="st3" x1="292" y1="73" x2="298" y2="67"/>
	<line class="st3" x1="298" y1="67" x2="306.5" y2="67"/>
	<line class="st3" x1="298" y1="67" x2="298" y2="58.5"/>
	<circle class="st4" cx="287.4" cy="89.2" r="3.5"/>
	<circle class="st4" cx="275.6" cy="81.1" r="3.5"/>
	<g>
	</g>
</g>
<g id="Lag_7">
	<g>
		<path d="M830.5,89.2c3.7,0,5.7,1.1,5.7,5.4v42.2c0,1.6,0,3.9-2.3,3.9H782c-2.3,0-3.4,0.3-3.4-1.5v-22.2h-89.7v17.7h49.6
			c2,0,3.1,1.1,3.1,3.4v20.9c0,1.1-1.7,1.4-3.1,1.4h-48.8v16.4h34.3c1.2,0,1.9,0.6,1.9,2.2v25.7c0,0.8-1.4,0.8-3.3,0.8H574.9
			c-1.5,0-3.1,0.3-3.1-1.5v-26.2c0-1.6,1.2-2.3,3.4-2.3h33.9v-57.5h-33.5c-1.5,0-4.6,0-4.6-1.9V92.3c0-2.3,2.3-3.1,5-3.1H830.5z"/>
		<path d="M1137.7,205.4c-44.3,0-62.8-16.6-62.8-34.7c0-12.9,9.6-22.3,27.7-22.3c29.4,0,35.8,20.9,40.8,24.3
			c3.9,2.6,16.9,3.4,33,3.4c31.3,0,32.9-11.5,32.9-17.7v-40h-35.5c-1.1,0-2.6-0.5-2.6-2V92.6c0-2.3,1.6-3.4,5-3.4h147.1
			c1.9,0,2.6,1.5,2.6,3.4v23.6c0,1.5-1.1,2.3-3.1,2.3h-32.7v48c0,6.2-1.7,38.9-43.6,38.9H1137.7z"/>
		<path d="M1489.4,205.4c-1.1,0-1.9-0.9-1.9-2.2v-24.2c0-1.2,1.9-2.9,3.3-2.9h33.6v-57.7h-35.3c-1.6,0-2.2-0.8-2.2-1.6V90.6
			c0-1.2,1.5-1.4,2.6-1.4h197.2c43.2,0,74.1,17.7,74.1,36.1c0,30.5-58.6,35.5-68.4,35.5h-88.7v15.3h35.8c2.8,0,3.4,1.6,3.4,2.8v23.6
			c0,2-0.8,2.9-3.4,2.9H1489.4z M1659.6,133.7c2.6,0,13-1.2,13-7.3c0-5.6-8.7-7.9-12.2-7.9h-56.6v15.2H1659.6z"/>
		<path d="M1913.2,89.2c1.9,0,2.6,1.1,2.6,2.5v23.9c0,1.6-1.5,2-3.9,2h-29.8v16.3h73.8v-16.3h-31.3c-1.5,0-2.6-0.5-2.6-1.9V92.3
			c0-1.4,0.9-3.1,3.3-3.1h144.1c1.5,0,3.1,1.1,3.1,3.1v22.2c0,1.1-0.5,3.1-2.5,3.1h-34.3v58.3h33.2c2.3,0,4.3,0.3,4.3,3.1v24
			c0,1.9-1.1,2.5-3.3,2.5h-145.5c-1.7,0-2.5-0.6-2.5-2.6v-25.3c0-1.1,0.8-1.7,1.9-1.7h32.1v-16.7h-73.8v16.7h32.1
			c0.9,0,1.5,0.6,1.5,1.6v26.3c0,1.1-1.2,1.7-2.3,1.7h-145.7c-0.8,0-1.7-0.6-1.7-2.2v-25.6c0-0.8,0.8-1.9,1.7-1.9h35.8v-58.3h-36
			c-1.4,0-2.3-0.6-2.3-2.6V91.3c0-1.1,0.6-2.2,1.7-2.2H1913.2z"/>
		<path d="M2204.6,205.4c-2.3,0-3.6-1.4-3.6-2.9v-22.6c0-1.4,0.9-2.3,2.5-2.3h26.2l-9.1-13.3h-48l-9.1,13.3h29
			c1.7,0,2.5,0.9,2.5,1.9v23.1c0,1.9-0.6,2.9-2.2,2.9h-105.4c-3.6,0-6.2-0.3-6.2-2.5v-23.7c0-1.7,0.8-2.6,3.1-2.6h31.8l60.1-84.2
			c1.5-2.3,3.6-3.3,5.4-3.3h71.3c3.1,0,5,1.7,5.7,3.3l62.5,85.7h34.3c2.6,0,2.6,2.8,2.6,5.1v19.7c0,1.9-1.5,2.5-4.3,2.5H2204.6z
			 M2182.4,149.9h27.6l-12.1-18.3c-0.5-0.5-2-0.5-2.3,0L2182.4,149.9z"/>
		<path d="M2564.5,89.2c4,0,37.5,1.1,51,6.5c9.6,3.9,23.7,11.8,23.7,24.3c0,11.6-15.8,20.3-31,26.2c12.2,5.9,20,9.3,24.6,25.3
			c1.1,2.9,2.5,5,5,5c3.3,0,11.9-2.8,11.9-13v-4.3c0-0.9,0.6-1.5,2.2-1.5h18.3c1.1,0,1.7,0.6,1.7,2.5v16.7
			c0,16.6-24.3,28.7-35.6,28.7h-61.5c-10.1,0-19.5-8.7-21.9-13c-2.3-3.9-5.7-16-7.3-19.7c-5-12.1-20.5-12.7-24-12.7h-39.1v16.9h36.1
			c1.4,0,2.3,0.2,2.3,0.9v26.7c0,0.8-0.9,0.9-2.3,0.9h-149.9c-0.8,0-1.7-0.6-1.7-2.2v-25.4c0-0.8,0.8-1.9,1.7-1.9h34.3v-58.9h-34.4
			c-1.4,0-2.3-0.3-2.3-2.3V91.3c0-1.1,0.6-2.2,1.7-2.2H2564.5z M2482.5,117.7v17.4h47.3c10.1,0,22.3-2.2,22.3-8.2
			c0-7.3-16-9.1-18.6-9.1H2482.5z"/>
		<path d="M2680.3,205.4c-1.5,0-2.3-1.1-2.3-3.1v-23.1c0-1.1,0.8-3.1,3.9-3.1h33.6v-57.7h-34.4c-1.2,0-2.9-0.5-2.9-2.8V91.5
			c0-1.5,1.2-2.3,3.4-2.3h151.6c3.1,0,4.3,1.5,5.6,2.6l17.2,23.6l15-23.9c1.2-1.2,2.5-2.3,4.8-2.3h143.8c1.9,0,2.6,1.1,2.6,2.6v24.6
			c0,1.5-1.1,2-2.6,2h-33.5v57.7h34.3c1.5,0,3.1,0.8,3.1,3.6v23.4c0,1.6-1.5,2.3-3.9,2.3h-146.3c-1.5,0-3.1-0.8-3.1-2.6v-24.6
			c0-1.2,1.5-2,3.1-2h33.9v-60h-0.5l-63.9,87.4c-1.1,1.1-2.6,1.9-4.6,1.9h-14.6c-1.5,0-3.1-0.3-4.2-2.3l-60.9-85.4h-0.3v58.4h33.5
			c1.9,0,2.6,0.8,2.6,2.8v24.6c0,1.5-2.3,1.9-4.2,1.9H2680.3z"/>
		<path d="M3154.9,205.4c-2.3,0-3.6-1.4-3.6-2.9v-22.6c0-1.4,0.9-2.3,2.5-2.3h26.2l-9.1-13.3h-48l-9.1,13.3h29
			c1.7,0,2.5,0.9,2.5,1.9v23.1c0,1.9-0.6,2.9-2.2,2.9h-105.4c-3.6,0-6.2-0.3-6.2-2.5v-23.7c0-1.7,0.8-2.6,3.1-2.6h31.8l60.1-84.2
			c1.5-2.3,3.6-3.3,5.4-3.3h71.3c3.1,0,5,1.7,5.7,3.3l62.5,85.7h34.3c2.6,0,2.6,2.8,2.6,5.1v19.7c0,1.9-1.5,2.5-4.3,2.5H3154.9z
			 M3132.7,149.9h27.6l-12.1-18.3c-0.5-0.5-2-0.5-2.3,0L3132.7,149.9z"/>
		<path d="M3537.8,154.3c1.4,0,2.9,0.9,2.2,2.5c-2.5,4.8-11.5,48.7-107.6,48.7c-98.9,0-123.5-29.8-123.5-56
			c0-26,25.6-60.3,109.9-60.3c30.5,0,49.3,5.4,65.3,14.1l1.1-10.2c0.2-1.7,1.2-2.8,2-2.8h50.7c1.9,0,2.9,0.6,2.9,3.4v44.2
			c0,1.6-0.5,2.5-2.3,2.8h-48.8c-1.4,0-1.7,0-2.9-1.4c-1.1-1.4-11.9-20.8-45.6-20.8c-33.8,0-40.8,19.5-40.8,28.2
			c0,6.8,3.7,29.9,45.6,29.9c33.6,0,48.7-15,52.7-21.2c0.6-0.9,1.5-1.1,2.9-1.1H3537.8z"/>
		<path d="M3716.5,117.7c-1.7,0-2.8-0.8-2.8-1.7V92.3c0-2,0.9-3.1,2.5-3.1h102.8c1.2,0,3.3,0.3,3.3,1.4v24.6c0,1.6-0.8,2.5-2,2.5
			h-35.3l-58.4,46.5v11.9h39.8c1.1,0,2,0.3,2,0.9v26.5c0,0.9-0.2,1.9-1.1,1.9h-160.9c-1.5,0-1.7-0.8-1.7-1.5v-26.2
			c0-0.9,1.2-1.6,2.2-1.6h39.5v-11.5l-58.6-47h-35c-1.7,0-2.8-0.6-2.8-1.5v-24c0-2,1.6-2.9,3.1-2.9h151.3c2,0,3.3,0.3,3.3,1.4V116
			c0,1.5-0.8,1.7-2,1.7h-23.1l26.7,25l30.7-24.6v-0.3H3716.5z"/>
	</g>
</g>
<g id="Lag_8">
	<path class="st3" d="M963.9,114.2c-0.1,0.5-0.1,1.1-0.1,1.6"/>
	<path class="st5" d="M1016.5,139c-7.3,0-13.1-5.2-13.1-11.5c0-6.4,5.9-11.5,13.1-11.5c21.8,0,39.4-20.7,39.4-46.2
		c0-7.4-3.9-14-10.1-18.2c-4.5-3.1-10.1-4.9-16.2-4.9c-29,0-52.5,25.8-52.5,57.7c-6.7,0-12.3,4.3-13.2,9.9
		c-11.2-6.3-24.7-9.9-39.3-9.9c-36.3,0-65.6,20.7-65.6,46.2c0,19.1,17.6,34.6,39.4,34.6c0,3.4-11.7,6.2-26.3,6.2
		c-28.6,0-51.8-7.7-52.5-17.3c0.5,18.9,35.5,34.2,78.7,34.2c21.8,0,39.4-10.3,39.4-23.1c0-12.8-8.8-23.1-19.7-23.1
		s-19.7-5.2-19.7-11.5c0-6.4,11.7-11.5,26.3-11.5c29,0,52.5,20.7,52.5,46.2c0,12.8,11.7,23.1,26.3,23.1c21.8,0,39.4-20.6,39.4-46.2
		C1042.7,149.3,1031,139,1016.5,139z M1037.2,72.2c3.6,0,6.6,2.6,6.6,5.8c0,3.2-2.9,5.8-6.6,5.8c-3.6,0-6.6-2.6-6.6-5.8
		C1030.6,74.8,1033.6,72.2,1037.2,72.2z M1015.5,59c3.6,0,6.6,2.6,6.6,5.8s-2.9,5.8-6.6,5.8s-6.6-2.6-6.6-5.8S1011.9,59,1015.5,59z"
		/>
	<path class="st6" d="M963.9,114.2c18.5,10.4,30.7,27.9,30.7,47.8"/>
	<line class="st3" x1="1045.8" y1="51.5" x2="1056.9" y2="41.7"/>
	<line class="st3" x1="1056.9" y1="41.7" x2="1072.7" y2="41.7"/>
	<line class="st3" x1="1056.9" y1="41.7" x2="1056.9" y2="27.8"/>
	<path class="st5" d="M1043.8,78c0,3.2-2.9,5.8-6.6,5.8c-3.6,0-6.6-2.6-6.6-5.8c0-3.2,2.9-5.8,6.6-5.8
		C1040.8,72.2,1043.8,74.8,1043.8,78z"/>
	<path class="st5" d="M1022.1,64.8c0,3.2-2.9,5.8-6.6,5.8s-6.6-2.6-6.6-5.8s2.9-5.8,6.6-5.8S1022.1,61.6,1022.1,64.8z"/>
	<g>
	</g>
	<g>
	</g>
	<g>
	</g>
	<g>
	</g>
	<g>
	</g>
	<g>
	</g>
</g>
</svg>
